<svg width="56" height="56" viewBox="0 0 56 56" fill="none" xmlns="http://www.w3.org/2000/svg">
<circle opacity="0.15" cx="28" cy="28" r="28" fill="#D228CB"/>
<path d="M37.8963 24.0781H19.7321C19.627 24.0781 19.5241 24.0356 19.4499 23.9613L16.8843 21.3958C16.6759 21.1871 16.3987 21.0723 16.1037 21.0723C15.8087 21.0723 15.5315 21.1871 15.3234 21.3955C15.1148 21.6039 15 21.8811 15 22.176C15 22.4708 15.1148 22.748 15.3233 22.9564L17.889 25.5221C18.3812 26.0144 19.0357 26.2856 19.7321 26.2856H20.636V26.3091C20.636 26.9177 21.1311 27.4128 21.7397 27.4128H22.0583L27.2012 29.1271L22.0583 30.8413H21.7397C21.1311 30.8413 20.636 31.3365 20.636 31.9451V32.0112C19.9898 32.1697 19.5088 32.7536 19.5088 33.448C19.5088 34.2638 20.1725 34.9275 20.9883 34.9275C21.804 34.9275 22.4677 34.2638 22.4677 33.448C22.4677 32.7536 21.9867 32.1698 21.3405 32.0112V31.9451C21.3405 31.7249 21.5196 31.5458 21.7397 31.5458H22.1142L22.1154 31.5459L22.1165 31.5458H34.5135L34.5147 31.5459L34.5159 31.5458H35.2661C35.4863 31.5458 35.6654 31.7249 35.6654 31.9451V32.0112C35.0191 32.1697 34.5382 32.7536 34.5382 33.448C34.5382 34.2638 35.2018 34.9275 36.0176 34.9275C36.8334 34.9275 37.4971 34.2638 37.4971 33.448C37.4971 32.7536 37.0161 32.1698 36.3699 32.0112V31.9451C36.3699 31.3365 35.8747 30.8413 35.2661 30.8413H34.5718L29.429 29.1271L34.5718 27.4128H35.2661C35.8747 27.4128 36.3699 26.9177 36.3699 26.3091V26.2856H37.8963C38.5049 26.2856 39 25.7904 39 25.1819C39 24.5733 38.5049 24.0781 37.8963 24.0781ZM32.344 30.8413H24.2861L28.3151 29.4984L32.344 30.8413ZM28.3151 28.7557L24.2861 27.4128H32.344L28.3151 28.7557Z" fill="#7A0076"/>
<path d="M33.3875 25.5811H32.636C32.4415 25.5811 32.2838 25.7388 32.2838 25.9333C32.2838 26.1279 32.4415 26.2856 32.636 26.2856H33.3875C33.582 26.2856 33.7397 26.1279 33.7397 25.9333C33.7397 25.7388 33.5821 25.5811 33.3875 25.5811Z" fill="#7A0076"/>
</svg>
