<svg width="56" height="56" viewBox="0 0 56 56" fill="none" xmlns="http://www.w3.org/2000/svg">
<circle opacity="0.15" cx="28" cy="28" r="28" fill="#D228CB"/>
<path d="M27.3942 17.0094C27.1346 17.0238 26.9038 17.1247 26.7308 17.3267L17.1827 27.9709C16.9844 28.1981 16.494 29.0274 16.2596 30.1055C16.0974 30.5598 16 31.0863 16 31.6921C16 34.555 18.3942 35.7017 18.3942 35.7017C18.4303 35.7233 18.47 35.7413 18.5096 35.7594L29.5865 39.0478C29.9471 39.1524 30.3365 39.0262 30.5673 38.7305L39.5962 27.8555C39.8197 27.5779 39.8666 27.1957 39.7115 26.8747C39.7115 26.8747 39.3618 26.0671 39.7404 25.144C39.8666 24.8375 39.8197 24.4877 39.6178 24.2245C39.4159 23.9613 39.0877 23.8279 38.7596 23.8747C38.4351 23.9252 38.1574 24.1452 38.0385 24.4517C37.5661 25.6091 37.7031 26.4889 37.8654 27.0478L29.5288 37.0863L19.0865 33.9997L19.0288 33.9709C18.8558 33.906 17.8462 33.4517 17.8462 31.6921C17.8462 30.9997 17.994 30.632 18.1346 30.4228C18.2752 30.2137 18.4231 30.1127 18.625 30.0478C18.8269 29.9829 19.0577 29.9829 19.2308 29.9901H19.2596L28.8942 32.7594C28.9772 32.781 29.0709 32.7882 29.1538 32.7882C29.4423 32.7882 29.72 32.6404 29.9038 32.4132L39.6827 21.1344C39.8954 20.8747 39.9675 20.5286 39.8558 20.2113C39.7476 19.8904 39.4627 19.6488 39.1346 19.5767L27.6538 17.0094C27.5673 16.9913 27.4808 17.0058 27.3942 17.0094L27.3942 17.0094ZM27.1346 20.6728C27.2356 20.6692 27.3293 20.68 27.4231 20.7017L34.2885 22.3747C34.6635 22.4649 34.8077 22.7101 34.6058 22.9517L33.8558 23.8459C33.6502 24.0875 33.1671 24.1957 32.7885 24.1055L25.9519 22.4324C25.5733 22.3423 25.4327 22.0647 25.6346 21.8267L26.3558 20.9613C26.5072 20.781 26.8317 20.68 27.1346 20.6728Z" fill="#7A0076"/>
</svg>
