<svg width="56" height="56" viewBox="0 0 56 56" fill="none" xmlns="http://www.w3.org/2000/svg">
<circle opacity="0.15" cx="28" cy="28" r="28" fill="#D228CB"/>
<path d="M21.934 17.6001C20.4979 17.6001 19.334 18.764 19.334 20.2001V35.8001C19.334 36.0308 19.426 36.2519 19.5896 36.4146C19.8954 37.51 20.747 38.4001 21.934 38.4001H35.8007C36.1132 38.4045 36.4039 38.2403 36.5615 37.9703C36.7191 37.7004 36.7191 37.3665 36.5615 37.0965C36.4039 36.8266 36.1132 36.6623 35.8007 36.6668H21.934C21.4443 36.6668 21.0673 36.2898 21.0673 35.8001C21.0673 35.3104 21.4443 34.9334 21.934 34.9334H34.934C35.8916 34.9334 36.6673 34.1578 36.6673 33.2001V19.3334C36.6673 18.3758 35.8917 17.6001 34.934 17.6001L21.934 17.6001ZM25.4007 22.8001H31.4673C31.9457 22.8001 32.334 23.1884 32.334 23.6668C32.334 24.1452 31.9457 24.5334 31.4673 24.5334H25.4007C24.9223 24.5334 24.534 24.1452 24.534 23.6668C24.534 23.1884 24.9223 22.8001 25.4007 22.8001Z" fill="#7A0076"/>
</svg>
