<svg width="56" height="56" viewBox="0 0 56 56" fill="none" xmlns="http://www.w3.org/2000/svg">
<circle opacity="0.15" cx="28" cy="28" r="28" fill="#D228CB"/>
<path d="M31.2004 20.6478V18.3998C31.2004 17.5198 30.4804 16.7998 29.6004 16.7998H26.4004C25.5204 16.7998 24.8004 17.5198 24.8004 18.3998V20.6478C23.3684 21.4718 22.4004 23.0238 22.4004 24.7998V37.5998C22.4004 38.4798 23.1204 39.1998 24.0004 39.1998H32.0004C32.8804 39.1998 33.6004 38.4798 33.6004 37.5998V24.7998C33.6004 23.0238 32.6324 21.4718 31.2004 20.6478ZM27.2004 21.5998H28.8004C30.5684 21.5998 32.0004 23.0318 32.0004 24.7998V25.5998H24.0004V24.7998C24.0004 23.0318 25.4324 21.5998 27.2004 21.5998Z" fill="#7A0076"/>
</svg>
