<svg width="56" height="56" viewBox="0 0 56 56" fill="none" xmlns="http://www.w3.org/2000/svg">
<circle opacity="0.15" cx="28" cy="28" r="28" fill="#D228CB"/>
<path d="M20 18C18.895 18 18 18.895 18 20V32C18 33.105 18.895 34 20 34H32C33.105 34 34 33.105 34 32V20C34 18.895 33.105 18 32 18H20ZM30 22C30.256 22 30.512 22.098 30.707 22.293C31.097 22.683 31.097 23.317 30.707 23.707L25.707 28.707C25.317 29.098 24.683 29.098 24.293 28.707L21.293 25.707C20.903 25.317 20.903 24.683 21.293 24.293C21.683 23.903 22.317 23.903 22.707 24.293L25 26.5859L29.293 22.293C29.488 22.098 29.744 22 30 22H30ZM37 22C36.448 22 36 22.448 36 23V36H23C22.448 36 22 36.448 22 37C22 37.552 22.448 38 23 38H36C37.105 38 38 37.105 38 36V23C38 22.448 37.552 22 37 22L37 22Z" fill="#7A0076"/>
</svg>
