<svg width="56" height="56" viewBox="0 0 56 56" fill="none" xmlns="http://www.w3.org/2000/svg">
<circle opacity="0.15" cx="28" cy="28" r="28" fill="#D228CB"/>
<path d="M21.75 19C20.2335 19 19 20.234 19 21.75V34.25C19 35.766 20.2335 37 21.75 37H30.5518C30.5208 36.8365 30.5 36.6705 30.5 36.5V35.5C30.5 34.147 31.5823 33.0478 32.9258 33.0078C32.6433 32.7173 32.41 32.3795 32.251 32H28.75C28.3355 32 28 31.664 28 31.25C28 30.836 28.3355 30.5 28.75 30.5H32.0127C32.1412 28.8245 33.542 27.5 35.25 27.5C35.8945 27.5 36.494 27.6911 37 28.0156V21.75C37 20.234 35.7665 19 34.25 19L21.75 19ZM26.5 22.5C26.6919 22.5 26.8838 22.5732 27.0303 22.7197C27.3233 23.0127 27.3228 23.4873 27.0303 23.7803L24.5303 26.2803C24.3838 26.4268 24.192 26.5 24 26.5C23.808 26.5 23.6162 26.4268 23.4697 26.2803L22.2197 25.0303C21.9267 24.7373 21.9267 24.2627 22.2197 23.9697C22.5127 23.6767 22.9873 23.6767 23.2803 23.9697L24 24.6895L25.9697 22.7197C26.1162 22.5732 26.3081 22.5 26.5 22.5V22.5ZM28.75 24H33.25C33.6645 24 34 24.336 34 24.75C34 25.164 33.6645 25.5 33.25 25.5H28.75C28.3355 25.5 28 25.164 28 24.75C28 24.336 28.3355 24 28.75 24ZM35.25 28.5C34.0074 28.5 33 29.5074 33 30.75C33 31.9926 34.0074 33 35.25 33C36.4926 33 37.5 31.9926 37.5 30.75C37.5 29.5074 36.4926 28.5 35.25 28.5ZM26.5 29C26.6919 29 26.8838 29.0732 27.0303 29.2197C27.3233 29.5127 27.3228 29.9873 27.0303 30.2803L24.5303 32.7803C24.3838 32.9268 24.192 33 24 33C23.808 33 23.6162 32.9268 23.4697 32.7803L22.2197 31.5303C21.9267 31.2373 21.9267 30.7627 22.2197 30.4697C22.5127 30.1767 22.9873 30.1767 23.2803 30.4697L24 31.1895L25.9697 29.2197C26.1162 29.0732 26.3081 29 26.5 29V29ZM33 34C32.1715 34 31.5 34.6715 31.5 35.5V36.5C31.5 37.8805 33.179 39 35.25 39C37.321 39 39 37.8805 39 36.5V35.5C39 34.6715 38.3285 34 37.5 34H33Z" fill="#7A0076"/>
</svg>
