<svg width="56" height="56" viewBox="0 0 56 56" fill="none" xmlns="http://www.w3.org/2000/svg">
<circle opacity="0.15" cx="28" cy="28" r="28" fill="#D228CB"/>
<g clip-path="url(#clip0)">
<path d="M37.6888 38.7997L35.1358 36.2467C35.6098 35.566 35.8479 34.7698 35.8479 33.9729C35.8479 32.9532 35.4598 31.9335 34.6835 31.1572C33.1309 29.6046 30.6046 29.6046 29.052 31.1572C27.4994 32.7098 27.4993 35.2361 29.0519 36.7888C30.4348 38.1717 32.5897 38.3217 34.1415 37.2411L36.6945 39.7941C36.9691 40.0687 37.4142 40.0687 37.6888 39.7941C37.8261 39.6568 37.8947 39.4768 37.8947 39.2969C37.8947 39.1169 37.8261 38.937 37.6888 38.7997Z" fill="#7A0076"/>
<path d="M26.6668 17.6492H27.9543C29.0251 17.6492 30.0568 17.8196 31.0243 18.1337C30.4492 16.8857 29.0038 16 27.3106 16C25.6173 16 24.172 16.8857 23.5968 18.1337C24.5643 17.8196 25.596 17.6492 26.6668 17.6492Z" fill="#7A0076"/>
<path d="M34.8719 29.1415V29.498C35.1585 29.691 35.4286 29.913 35.6783 30.1627C35.8423 30.3267 35.9942 30.4995 36.134 30.68C36.3802 30.0116 36.515 29.2893 36.515 28.5354V27.6164C36.515 22.8882 32.682 19.0553 27.9539 19.0553H26.6665C21.9383 19.0553 18.1055 22.8883 18.1055 27.6164V28.5354C18.1055 30.1581 18.7287 31.6351 19.7485 32.7407V29.1415C19.7485 26.103 22.2205 23.631 25.2591 23.631H29.3614C32.3999 23.631 34.8719 26.103 34.8719 29.1415Z" fill="#7A0076"/>
<path d="M28.0583 37.783C27.8805 37.6052 27.7181 37.4178 27.5705 37.2227C27.4846 37.2307 27.3979 37.2351 27.3104 37.2351C26.3013 37.2351 25.3774 36.6931 24.8993 35.8208C24.7126 35.4802 24.8375 35.0529 25.178 34.8663C25.2852 34.8075 25.401 34.7796 25.5153 34.7796C25.7638 34.7796 26.0046 34.9116 26.1325 35.1449C26.2753 35.4056 26.5024 35.605 26.7719 35.7195C26.1294 33.835 26.558 31.663 28.0583 30.1627C29.0748 29.1462 30.4279 28.5864 31.8684 28.5864C32.4138 28.5864 32.9467 28.6668 33.4536 28.8218C33.2904 26.7045 31.5207 25.0373 29.3616 25.0373H25.2592C22.9925 25.0373 21.155 26.8749 21.155 29.1416V33.8445C21.155 37.244 23.9108 39.9999 27.3104 39.9999C28.4418 39.9999 29.5016 39.6944 30.4126 39.1618C29.5305 38.9163 28.7225 38.4472 28.0583 37.783Z" fill="#7A0076"/>
</g>
<defs>
<clipPath id="clip0">
<rect width="24" height="24" fill="white" transform="translate(16 16)"/>
</clipPath>
</defs>
</svg>
