<svg width="56" height="56" viewBox="0 0 56 56" fill="none" xmlns="http://www.w3.org/2000/svg">
<circle opacity="0.15" cx="28" cy="28" r="28" fill="#D228CB"/>
<path d="M27.6777 18.1815C27.2556 18.2201 26.8798 18.5278 26.7793 18.9725L26.2246 21.4178L23.5137 24.4295C23.1827 24.7965 23 25.2734 23 25.7674V34.9999C23 36.1049 23.895 36.9999 25 36.9999H33.0313C33.7723 36.9999 34.4431 36.5636 34.7441 35.8866L37.7461 29.1307C37.9131 28.7567 38 28.3513 38 27.9413V26.9999C38 25.8999 37.1 24.9999 36 24.9999H29C29 24.9999 30 22.6291 30 20.8631C30 19.2501 28.9624 18.5442 28.1074 18.2362C27.9647 18.1844 27.8184 18.1686 27.6777 18.1815V18.1815ZM19.5 24.9999C18.672 24.9999 18 25.6719 18 26.4999V35.4999C18 36.3279 18.672 36.9999 19.5 36.9999C20.328 36.9999 21 36.3279 21 35.4999V26.4999C21 25.6719 20.328 24.9999 19.5 24.9999Z" fill="#7A0076"/>
</svg>
