<svg width="56" height="56" viewBox="0 0 56 56" fill="none" xmlns="http://www.w3.org/2000/svg">
<circle opacity="0.15" cx="28" cy="28" r="28" fill="#D228CB"/>
<path d="M34.4919 17.9922C34.1866 17.9923 33.9118 18.1774 33.797 18.4603C33.6823 18.7433 33.7505 19.0675 33.9695 19.2803L35.8581 21.1689C36.0472 21.358 36.0472 21.641 35.8581 21.8301L34.3796 23.3096L30.2849 19.2148C30.0968 19.0189 29.8174 18.94 29.5546 19.0085C29.2918 19.077 29.0865 19.2823 29.018 19.5451C28.9495 19.8079 29.0284 20.0873 29.2243 20.2754L33.7624 24.8135C33.8098 24.8793 33.8675 24.937 33.9333 24.9844L35.0124 26.0635C35.6713 26.7224 35.6713 27.7679 35.0124 28.4268L30.9314 32.5078C30.2725 33.1667 29.227 33.1667 28.5681 32.5078L22.78 26.7197C22.5919 26.5238 22.3126 26.4449 22.0497 26.5134C21.7869 26.5819 21.5817 26.7872 21.5131 27.05C21.4446 27.3128 21.5235 27.5922 21.7195 27.7803L22.8445 28.9053L19.7927 31.957C19.4027 32.347 19.4027 32.9811 19.7927 33.3711L20.4822 34.0605L19.1462 35.3965C19.1152 35.428 19.0881 35.4635 19.0661 35.502L18.0661 37.252C17.9541 37.448 17.9867 37.694 18.1462 37.8535C18.2422 37.95 18.3702 38 18.4997 38C18.5847 38 18.6703 37.9781 18.7478 37.9336L20.4978 36.9336C20.5363 36.9116 20.5717 36.885 20.6032 36.8535L21.9392 35.5176L22.6296 36.208C22.8186 36.396 23.0692 36.5 23.3357 36.5C23.6022 36.5 23.8527 36.396 24.0427 36.207L27.0945 33.1553L27.5075 33.5684C28.7397 34.8005 30.7598 34.8005 31.9919 33.5684L36.073 29.4873C37.3051 28.2552 37.3051 26.2351 36.073 25.0029L35.4402 24.3701L36.9187 22.8906C37.6806 22.1287 37.6806 20.8703 36.9187 20.1084L35.03 18.2197C34.8888 18.0743 34.6947 17.9922 34.4919 17.9922ZM28.7497 22.25C28.5579 22.25 28.366 22.3232 28.2195 22.4697L24.9695 25.7197C24.6765 26.0122 24.6765 26.4878 24.9695 26.7803L25.9695 27.7803C26.1155 27.9273 26.3077 28 26.4997 28C26.6917 28 26.8835 27.9268 27.03 27.7803L30.28 24.5303C30.5725 24.2373 30.5725 23.7627 30.28 23.4697L29.28 22.4697C29.1335 22.3232 28.9416 22.25 28.7497 22.25ZM31.9997 25.5C31.8079 25.5 31.616 25.5732 31.4695 25.7197L28.2195 28.9697C27.9265 29.2622 27.9265 29.7378 28.2195 30.0303L29.2195 31.0303C29.366 31.1768 29.5587 31.249 29.7507 31.249C29.9427 31.249 30.1345 31.1768 30.281 31.0303L33.531 27.7803C33.823 27.4878 33.8225 27.0127 33.53 26.7197L32.53 25.7197C32.3835 25.5732 32.1916 25.5 31.9997 25.5Z" fill="#7A0076"/>
</svg>
