<svg width="56" height="56" viewBox="0 0 56 56" fill="none" xmlns="http://www.w3.org/2000/svg">
<circle opacity="0.15" cx="28" cy="28" r="28" fill="#D228CB"/>
<path d="M27.9108 16.0011C27.9108 16.0011 19.594 15.6307 20.5467 28.5041C20.5467 28.5041 20.4944 39.0458 25.2089 39.9999C25.2089 39.9999 23.1434 37.6159 23.7257 35.9193C23.7257 35.9193 26.3217 35.4422 25.9515 31.4712C25.9515 31.4712 23.7789 29.5636 23.5138 28.2397C23.5138 28.2397 23.5138 24.1068 23.8853 23.5771C23.8853 23.5771 25.9515 23.736 26.1627 23.5771C26.1627 23.5771 27.8585 22.0406 28.2289 21.2466C28.2289 21.2466 28.5468 22.6231 27.753 23.4725H29.9241C29.9241 23.4725 30.613 22.7835 30.7176 22.0419C30.7176 22.0419 30.9295 23.3664 30.6131 23.524H31.8851C31.8851 23.524 32.5734 27.1794 32.4142 28.2395C32.4142 28.2395 31.1962 30.94 29.9768 31.4163C29.9768 31.4163 29.5523 35.4969 32.5194 36.0251C32.5194 36.0251 32.2541 39.6812 30.4525 39.8398C30.4525 39.8398 33.4729 40.6346 35.222 34.1715C35.222 34.1715 36.0695 25.1664 34.9386 22.2351C34.94 22.2359 33.8455 16.69 27.9108 16.0011Z" fill="#7A0076"/>
</svg>
