<svg width="56" height="56" viewBox="0 0 56 56" fill="none" xmlns="http://www.w3.org/2000/svg">
<circle opacity="0.15" cx="28" cy="28" r="28" fill="#D228CB"/>
<g clip-path="url(#clip0)">
<path d="M28.7494 25.7091C27.586 24.627 26.2726 23.0089 26.2254 20.5808C26.8128 22.5587 28.8217 25.3754 34.2226 29.0676C34.2226 29.0676 28.2932 20.7666 30.2997 16.1133C30.2997 16.1133 29.1925 15.5429 26.9821 16.9615C26.9835 16.9581 26.9846 16.9538 26.9861 16.9497C26.9861 16.9497 23.2994 19.4202 23.9151 22.1186C24.0361 22.6518 23.9515 23.2965 22.6685 23.9137C22.4112 24.0365 21.9537 24.1866 22.0755 24.8865C22.0755 24.8865 22.1999 25.3846 22.4484 25.575C22.4607 25.5845 22.475 25.5901 22.4862 25.6012C22.8056 25.9053 22.251 25.8186 22.0764 25.8744C21.7791 25.9698 21.7719 26.5586 22.2432 27.0757C22.2432 27.0757 21.483 27.8362 21.9089 28.5054C21.9089 28.5054 22.0147 28.6261 22.4566 28.5658C22.4566 28.5658 22.1166 30.9656 23.9618 30.9071C25.0475 30.8715 27.4135 29.9793 28.2795 31.3789C28.2795 31.3789 31.2142 34.9827 27.6564 40C27.6564 40 31.7604 38.4802 32.1864 33.8257C32.1856 33.8277 33.4939 30.1177 28.7494 25.7091Z" fill="#7A0076"/>
</g>
<defs>
<clipPath id="clip0">
<rect width="24" height="24" fill="white" transform="translate(16 16)"/>
</clipPath>
</defs>
</svg>
