<svg width="58" height="56" viewBox="0 0 58 56" fill="none" xmlns="http://www.w3.org/2000/svg">
<ellipse opacity="0.15" cx="29" cy="28" rx="29" ry="28" fill="#D228CB"/>
<path d="M34.0312 20.5121C33.607 20.5808 33.3157 20.9683 33.3157 21.3842V24.6667C33.3157 24.8958 33.1215 25.0833 32.8841 25.0833C32.6468 25.0833 32.4526 24.8958 32.4526 24.6667V20.13C32.4526 19.6896 32.1203 19.2904 31.6659 19.2533C31.3987 19.2313 31.1527 19.3254 30.981 19.4958C30.8213 19.6458 30.7264 19.8542 30.7264 20.0833V24.25C30.7264 24.4792 30.5322 24.6667 30.2948 24.6667C30.0575 24.6667 29.8633 24.4792 29.8633 24.25V19.7133C29.8633 19.2729 29.531 18.8738 29.0766 18.8367C28.8094 18.8146 28.5635 18.9088 28.3917 19.0792C28.232 19.2292 28.1371 19.4375 28.1371 19.6667V24.25C28.1371 24.4792 27.9429 24.6667 27.7055 24.6667C27.4682 24.6667 27.274 24.4792 27.274 24.25V21.7967C27.274 21.3563 26.9417 20.9571 26.4873 20.92C26.2202 20.8979 25.9742 20.9921 25.8024 21.1625C25.6427 21.3125 25.5478 21.5208 25.5478 21.75V28.2333C25.5478 28.3667 25.4831 28.4917 25.3709 28.5667C25.263 28.6458 25.1206 28.6708 24.9911 28.6333L21.9185 27.6208C21.6509 27.5417 21.3704 27.5875 21.1503 27.7458C20.9259 27.9083 20.8008 28.15 20.8008 28.4167C20.8008 28.6875 20.9346 28.9417 21.1633 29.0958L25.5478 32.7917L25.1163 37.1667C26.4109 37.1667 26.8424 36.3333 27.7055 36.3333C28.5686 36.3333 29.0002 37.1667 30.2948 37.1667C31.5895 37.1667 32.021 36.3333 32.8841 36.3333C33.7472 36.3333 34.1788 37.1667 35.4734 37.1667L35.0419 21.3333C35.0419 20.8283 34.5702 20.4246 34.0312 20.5121L34.0312 20.5121Z" fill="#7A0076"/>
</svg>
