<svg width="24" height="24" viewBox="0 0 24 24" fill="none" xmlns="http://www.w3.org/2000/svg">
<path d="M11.5769 2C7.95048 2 5 4.84121 5 8.33335C5 9.38169 5.27218 10.4211 5.78962 11.3431L11.2173 20.7959C11.2895 20.9219 11.4272 21 11.5769 21C11.7267 21 11.8643 20.9219 11.9366 20.7959L17.3663 11.3399C17.8817 10.4211 18.1539 9.38165 18.1539 8.33331C18.1539 4.84121 15.2034 2 11.5769 2ZM11.5769 11.5C9.76371 11.5 8.28849 10.0794 8.28849 8.33335C8.28849 6.58728 9.76371 5.16669 11.5769 5.16669C13.3902 5.16669 14.8654 6.58728 14.8654 8.33335C14.8654 10.0794 13.3902 11.5 11.5769 11.5Z" fill="#393939"/>
</svg>
