<svg width="24" height="24" viewBox="0 0 24 24" fill="none" xmlns="http://www.w3.org/2000/svg">
<path d="M19.6799 1.91992H4.31992C2.99512 1.91992 1.91992 2.99512 1.91992 4.31992V19.6799C1.91992 21.0047 2.99512 22.0799 4.31992 22.0799H19.6799C21.0047 22.0799 22.0799 21.0047 22.0799 19.6799V4.31992C22.0799 2.99512 21.0047 1.91992 19.6799 1.91992ZM17.7599 9.11992H16.7999C15.7727 9.11992 15.3599 9.35992 15.3599 10.0799V11.5199H17.7599L17.2799 13.9199H15.3599V21.1199H12.9599V13.9199H11.0399V11.5199H12.9599V10.0799C12.9599 8.15992 13.9199 6.71992 15.8399 6.71992C17.2319 6.71992 17.7599 7.19992 17.7599 7.19992V9.11992Z" fill="#8C8C8C"/>
</svg>
