<svg width="24" height="24" viewBox="0 0 24 24" fill="none" xmlns="http://www.w3.org/2000/svg">
<path d="M19.6799 1.91992H4.31992C2.99512 1.91992 1.91992 2.99512 1.91992 4.31992V19.6799C1.91992 21.0047 2.99512 22.0799 4.31992 22.0799H19.6799C21.0047 22.0799 22.0799 21.0047 22.0799 19.6799V4.31992C22.0799 2.99512 21.0047 1.91992 19.6799 1.91992ZM18.1055 15.8399L16.3151 15.8351C16.3151 15.8351 16.2767 15.8399 16.2143 15.8399C16.0703 15.8399 15.7727 15.8015 15.4223 15.5615C14.7935 15.1247 14.1935 14.0399 13.7183 14.0399C13.6847 14.0399 13.6559 14.0447 13.6271 14.0543C13.2143 14.1839 13.0895 14.5967 13.0895 15.1007C13.0895 15.2783 12.9647 15.3599 12.6287 15.3599H11.7023C10.6655 15.3599 9.66232 15.3359 8.53432 14.1023C6.87352 12.2831 5.31832 9.04792 5.31832 9.04792C5.31832 9.04792 5.23192 8.86072 5.32312 8.75032C5.40952 8.64952 5.61112 8.63992 5.68792 8.63992C5.70712 8.63992 5.71672 8.63992 5.71672 8.63992H7.63672C7.63672 8.63992 7.81432 8.67352 7.94392 8.76952C8.05432 8.85112 8.11192 8.99992 8.11192 8.99992C8.11192 8.99992 8.43832 9.63352 8.84632 10.3487C9.53272 11.5295 9.90232 11.9231 10.1663 11.9231C10.2095 11.9231 10.2527 11.9135 10.2959 11.8895C10.6895 11.6735 10.5743 9.92632 10.5743 9.92632C10.5743 9.92632 10.5791 9.29272 10.3727 9.01432C10.2143 8.79352 9.91192 8.73112 9.77752 8.71192C9.67192 8.69752 9.84472 8.44792 10.0751 8.33272C10.3727 8.18872 10.8671 8.15992 11.4623 8.15992H11.7503C12.3119 8.16952 12.3263 8.22712 12.5471 8.27992C13.2095 8.43832 12.9839 9.05752 12.9839 10.5407C12.9839 11.0159 12.8975 11.6831 13.2383 11.9087C13.2623 11.9231 13.2959 11.9327 13.3391 11.9327C13.5599 11.9327 14.0351 11.6495 14.7935 10.3679C15.2159 9.63832 15.5423 8.91352 15.5423 8.91352C15.5423 8.91352 15.6143 8.78392 15.7247 8.71672C15.8303 8.65432 15.8303 8.65432 15.9695 8.65432H15.9839C16.1375 8.65432 17.6639 8.63992 17.9999 8.63992H18.0383C18.3599 8.63992 18.6527 8.64472 18.7055 8.84152C18.7823 9.13912 18.4703 9.67192 17.6495 10.7759C16.2959 12.5855 16.1423 12.4511 17.2655 13.4975C18.3407 14.4959 18.5615 14.9807 18.5999 15.0431C19.0463 15.7823 18.1055 15.8399 18.1055 15.8399Z" fill="#8C8C8C"/>
</svg>
