<svg width="24" height="24" viewBox="0 0 24 24" fill="none" xmlns="http://www.w3.org/2000/svg">
<path d="M7.83171 2C4.61587 2 2 4.61829 2 7.83496V16.1683C2 19.3841 4.61829 22 7.83496 22H16.1683C19.3841 22 22 19.3817 22 16.165V7.83171C22 4.61587 19.3817 2 16.165 2H7.83171ZM17.8333 5.33333C18.2933 5.33333 18.6667 5.70667 18.6667 6.16667C18.6667 6.62667 18.2933 7 17.8333 7C17.3733 7 17 6.62667 17 6.16667C17 5.70667 17.3733 5.33333 17.8333 5.33333ZM12 7C14.7575 7 17 9.2425 17 12C17 14.7575 14.7575 17 12 17C9.2425 17 7 14.7575 7 12C7 9.2425 9.2425 7 12 7ZM12 8.66667C10.1591 8.66667 8.66667 10.1591 8.66667 12C8.66667 13.8409 10.1591 15.3333 12 15.3333C13.8409 15.3333 15.3333 13.8409 15.3333 12C15.3333 10.1591 13.8409 8.66667 12 8.66667Z" fill="#8C8C8C"/>
</svg>
