<svg width="19" height="13" viewBox="0 0 19 13" fill="none" xmlns="http://www.w3.org/2000/svg">
<path d="M18.8326 0.928711L13.0703 6.49989L18.8326 12.0711C18.9368 11.8592 19 11.625 19 11.3749V1.6249C19 1.37475 18.9368 1.14057 18.8326 0.928711Z" fill="#393939"/>
<path d="M17.3306 0H1.67051C1.41345 0 1.1728 0.0614972 0.955078 0.162861L8.31989 7.29346C8.97108 7.92714 10.03 7.92714 10.6812 7.29346L18.046 0.162861C17.8283 0.0614972 17.5877 0 17.3306 0Z" fill="#393939"/>
<path d="M0.167363 0.928711C0.063197 1.14057 0 1.37475 0 1.6249V11.3749C0 11.625 0.063197 11.8592 0.167363 12.0711L5.92965 6.49989L0.167363 0.928711Z" fill="#393939"/>
<path d="M12.2837 7.26562L11.4683 8.05909C10.3833 9.11494 8.61776 9.11494 7.53273 8.05909L6.71736 7.26562L0.955078 12.8368C1.1728 12.9382 1.41345 12.9997 1.67051 12.9997H17.3306C17.5877 12.9997 17.8283 12.9382 18.046 12.8368L12.2837 7.26562Z" fill="#393939"/>
</svg>
