<svg width="24" height="24" viewBox="0 0 24 24" fill="none" xmlns="http://www.w3.org/2000/svg">
<path d="M16.9792 14.3114C16.6544 14.121 16.2552 14.125 15.932 14.317L14.2952 15.2922C13.9288 15.5106 13.4712 15.485 13.1352 15.2226C12.5544 14.769 11.6192 14.0058 10.8056 13.1922C9.99203 12.3786 9.22883 11.4434 8.77523 10.8626C8.51283 10.5266 8.48723 10.069 8.70563 9.70258L9.68083 8.06578C9.87362 7.74258 9.87522 7.34018 9.68482 7.01538L7.28322 2.91298C7.05042 2.51618 6.58802 2.32098 6.14082 2.43058C5.70642 2.53618 5.14242 2.79378 4.55123 3.38578C2.70003 5.23698 1.71682 8.35938 8.67843 15.321C15.64 22.2826 18.7616 21.3002 20.6136 19.4482C21.2064 18.8554 21.4632 18.2906 21.5696 17.8554C21.6776 17.409 21.4856 16.9498 21.0896 16.7178C20.1008 16.1394 17.968 14.8906 16.9792 14.3114V14.3114Z" fill="#393939"/>
</svg>
