<svg width="56" height="56" viewBox="0 0 56 56" fill="none" xmlns="http://www.w3.org/2000/svg">
<circle opacity="0.15" cx="28" cy="28" r="28" fill="#D228CB"/>
<path d="M37.3828 28.7305C37.3047 28.707 36.8203 28.4844 37.125 27.5469H37.1172C37.9062 26.7266 38.5078 25.3984 38.5078 24.0937C38.5078 22.0859 37.1953 21.0352 35.668 21.0352C34.1406 21.0352 32.8359 22.0859 32.8359 24.0937C32.8359 25.4023 33.4336 26.7383 34.2266 27.5586C34.3398 27.8672 34.3359 28.1055 34.2773 28.2812C35.0938 28.9844 36.2773 30.4375 35.8711 33.2031C35.4766 31.9453 34.8828 30.8047 34.1445 29.9414C33.418 28.9531 31.6953 28.0586 30.1133 27.5273C30.0195 27.4961 29.4219 27.2227 29.7969 26.0703H29.7891C30.7617 25.0586 31.5 23.4219 31.5 21.8125C31.5 19.3398 29.8828 18.043 28 18.043C26.1172 18.043 24.5078 19.3398 24.5078 21.8125C24.5078 23.4297 25.2461 25.0703 26.2188 26.082C26.6016 27.0977 25.9219 27.4766 25.7773 27.5273C24.7578 27.9023 23.6523 28.4375 22.8203 29.0469C22.7734 29.0781 22.7344 29.1172 22.6914 29.1484C22.4922 29.3047 22.3164 29.4609 22.1562 29.6211C22.0664 29.7109 21.9766 29.8047 21.8906 29.9023V29.9062C21.1328 30.7695 20.5312 31.9297 20.1289 33.2031C19.7227 30.4375 20.9023 28.9844 21.7227 28.2852C21.6641 28.1094 21.6602 27.8711 21.7734 27.5586C22.5664 26.7383 23.1641 25.4063 23.1641 24.0937C23.1641 22.0898 21.8594 21.0352 20.332 21.0352C18.8047 21.0352 17.4922 22.0898 17.4922 24.0937C17.4922 25.4023 18.0938 26.7266 18.8828 27.5508H18.875C19.1797 28.4883 18.6953 28.707 18.6172 28.7344C16.9414 29.2969 15.0547 30.3594 15.0547 31.4492C15.0547 31.7344 15.0547 33.7617 15.0547 34.0469C15.0547 35.4883 19.8594 37.9297 28.0195 37.9297C36.1797 37.9297 40.9453 35.4883 40.9453 34.0469C40.9453 33.7656 40.9453 31.7344 40.9453 31.4492C40.9453 30.3555 39.0625 29.2969 37.3828 28.7305Z" fill="#7A0076"/>
</svg>
