<svg width="56" height="56" viewBox="0 0 56 56" fill="none" xmlns="http://www.w3.org/2000/svg">
<circle opacity="0.15" cx="28" cy="28" r="28" fill="#D228CB"/>
<g clip-path="url(#clip0)">
<path d="M28 15C23.4805 15 15.8203 17.5977 18.625 26.875C17.8594 27.25 17 28.168 17 29.5C17 30.3008 17.3008 31.043 17.7813 31.6875C18.1367 32.168 18.668 32.5508 19.2813 32.7812C20.0742 34.5742 21.043 36.4727 22.375 38.0312C23.7969 39.6992 25.6836 41 28 41C30.3164 41 32.2031 39.6992 33.625 38.0312C34.957 36.4727 35.9258 34.5742 36.7188 32.7812C37.332 32.5508 37.8633 32.168 38.2188 31.6875C38.6992 31.043 39 30.3008 39 29.5C39 28.1328 38.0898 27.1992 37.3125 26.8438C37.2539 26.8164 37.2266 26.8242 37.1875 26.8125C39.1953 19.3086 36.0508 15.9102 31.6875 16.6875C30.7891 15.4883 29.1016 15 28 15L28 15ZM31 19.5938C31.7305 22.082 33.5859 23.7656 34.5312 25.7813C32.7812 25.957 30.1992 26.1875 28 26.1875C25.5312 26.1875 22.3086 26.0859 20.6562 26.0313C21.4688 21.8125 28.7852 23.7539 31 19.5938ZM20.1875 28.5C20.5625 29.4297 20.9766 30.4453 21.1875 30.9063C21.6875 32.0078 22.3945 32.9062 23.0938 33.4062C24.3945 34.3047 25.8867 33.793 26.6875 33.0938C27.1875 32.6953 27.3984 32.0938 28 32.0938C28.6016 32.0938 29 32.5 29.5 33C30.6992 34.1992 31.8945 34.0117 33.0938 33.3125C33.9922 32.8125 34.3125 31.9063 34.8125 30.9063C34.9805 30.5313 35.2617 29.5195 35.5625 28.5H35.8125C35.8125 28.5 36.1797 28.5117 36.5 28.6562C36.8203 28.8008 37 28.8672 37 29.5C37 29.6992 36.8711 30.168 36.625 30.5C36.3789 30.832 36.0625 30.9844 35.9062 31L35.3125 31.0625L35.0938 31.5937C34.3125 33.3984 33.2969 35.3437 32.0938 36.75C30.8906 38.1562 29.582 39 28 39C26.418 39 25.1094 38.1562 23.9063 36.75C22.7031 35.3438 21.6875 33.3984 20.9063 31.5937L20.6875 31.0625L20.0938 31C19.9375 30.9844 19.6211 30.832 19.375 30.5C19.1289 30.168 19 29.6992 19 29.5C19 28.8672 19.1797 28.8008 19.5 28.6562C19.8203 28.5117 20.1875 28.5 20.1875 28.5H20.1875ZM23.4375 28.9375C23.7109 28.9141 24.1016 29 24.5 29C25.3008 29 26 28.6992 26 29.5C26 30.3008 25.3008 31 24.5 31C23.6992 31 23 30.3008 23 29.5C23 29.1016 23.1641 28.9609 23.4375 28.9375ZM30.4375 28.9375C30.7109 28.9141 31.1016 29 31.5 29C32.3008 29 33 28.6992 33 29.5C33 30.3008 32.3008 31 31.5 31C30.6992 31 30 30.3008 30 29.5C30 29.1016 30.1641 28.9609 30.4375 28.9375Z" fill="#7A0076"/>
</g>
<defs>
<clipPath id="clip0">
<rect width="26" height="26" fill="white" transform="translate(15 15)"/>
</clipPath>
</defs>
</svg>
