<svg width="56" height="56" viewBox="0 0 56 56" fill="none" xmlns="http://www.w3.org/2000/svg">
<circle opacity="0.15" cx="28" cy="28" r="28" fill="#D228CB"/>
<path d="M21.934 17.5996C20.4979 17.5996 19.334 18.7635 19.334 20.1996V35.7996C19.334 36.0303 19.426 36.2514 19.5896 36.4141C19.8954 37.5095 20.747 38.3996 21.934 38.3996H35.8007C36.1132 38.404 36.4039 38.2398 36.5615 37.9699C36.7191 37.6999 36.7191 37.366 36.5615 37.096C36.4039 36.8261 36.1132 36.6619 35.8007 36.6663H21.934C21.4443 36.6663 21.0673 36.2893 21.0673 35.7996C21.0673 35.3099 21.4443 34.9329 21.934 34.9329H34.934C35.8916 34.9329 36.6673 34.1573 36.6673 33.1996V19.3329C36.6673 18.3753 35.8917 17.5996 34.934 17.5996L21.934 17.5996ZM25.4007 22.7996H31.4673C31.9457 22.7996 32.334 23.1879 32.334 23.6663C32.334 24.1447 31.9457 24.5329 31.4673 24.5329H25.4007C24.9223 24.5329 24.534 24.1447 24.534 23.6663C24.534 23.1879 24.9223 22.7996 25.4007 22.7996Z" fill="#7A0076"/>
</svg>
