<svg width="56" height="56" viewBox="0 0 56 56" fill="none" xmlns="http://www.w3.org/2000/svg">
<circle opacity="0.15" cx="28" cy="28" r="28" fill="#D228CB"/>
<path d="M28.0898 16C23.1318 16 20.3202 18.7778 20.2402 22.7988V23H24.6172V22.7988C24.7132 21.0228 25.9418 19.877 27.7988 19.877C29.6398 19.877 30.8672 20.9414 30.8672 22.4434C30.8672 23.9454 30.2373 24.7208 28.1543 25.9648C25.9253 27.2728 25.0361 28.7265 25.2461 31.3105L25.2715 32H29.5586V31.3438C29.5586 29.7937 30.1567 29.0008 32.3047 27.7578C34.5817 26.4168 35.7598 24.7218 35.7598 22.2988C35.7598 18.5678 32.7088 16 28.0898 16L28.0898 16ZM27.5078 35C25.8648 35 24.8398 35.9538 24.8398 37.5078C24.8398 39.0478 25.8658 40 27.5078 40C29.1498 40 30.1621 39.0478 30.1621 37.5078C30.1621 35.9538 29.1508 35 27.5078 35Z" fill="#7A0076"/>
</svg>
