<svg width="56" height="43" viewBox="0 0 56 43" fill="none" xmlns="http://www.w3.org/2000/svg">
<path d="M49.957 9.32349L49.957 19.2101L38.575 19.2101L38.575 9.32349L49.957 9.32349Z" fill="#7E57C2"/>
<path d="M49.957 14.266L49.957 19.2092L38.575 19.2092L38.575 14.266L49.957 14.266Z" fill="#643DA8"/>
<path d="M9.66602 12.6721L9.66602 15.8597L0.978896 15.8597L0.978896 12.6721L9.66602 12.6721Z" fill="#F5F0FF"/>
<path d="M9.66602 14.266L9.66602 15.8598L0.978896 15.8598L0.978896 14.266L9.66602 14.266Z" fill="#E1DCF3"/>
<path d="M18.7383 7.39136L16.1189 7.39136L8.07188 10.3267L8.07188 18.2067L16.1189 21.1421L18.7383 21.1421L18.7383 7.39136Z" fill="#7E57C2"/>
<path d="M18.7383 14.266L8.07188 14.266L8.07188 18.206L16.1189 21.1413L18.7383 21.1413L18.7383 14.266Z" fill="#643DA8"/>
<path d="M38.5742 7.39136L38.5742 21.1421L16.1194 21.1421L16.1194 7.39136L38.5742 7.39136Z" fill="#FF0FA2"/>
<path d="M38.5742 14.266L38.5742 21.1413L16.1194 21.1413L16.1194 14.266L38.5742 14.266Z" fill="#E2009B"/>
<path d="M24.3711 7.39136L24.3711 21.1423L21.1835 21.1423L21.1835 7.39136L24.3711 7.39136Z" fill="#7E57C2"/>
<path d="M30.7461 7.39136L30.7461 21.1423L27.5585 21.1423L27.5585 7.39136L30.7461 7.39136Z" fill="#7E57C2"/>
<path d="M55.3809 12.6721L55.3809 15.8597L49.957 15.8597L49.957 12.6721L55.3809 12.6721Z" fill="#F5F0FF"/>
<path d="M55.3809 14.266L55.3809 15.8598L49.957 15.8598L49.957 14.266L55.3809 14.266Z" fill="#E1DCF3"/>
<path d="M49.957 25.488L49.957 35.5283L38.575 35.5283L38.575 25.488L49.957 25.488Z" fill="#6858AD"/>
<path d="M49.957 25.488L49.957 35.5283L38.575 35.5283L38.575 25.488L49.957 25.488Z" fill="#7E57C2"/>
<path d="M49.957 33.9333L49.957 42.3797L38.575 42.3797L38.575 33.9333L49.957 33.9333Z" fill="#484686"/>
<path d="M49.957 33.9333L49.957 42.3797L38.575 42.3797L38.575 33.9333L49.957 33.9333Z" fill="#643DA8"/>
<path d="M51.5508 4.07104L51.5508 42.38L48.3632 42.38L48.3632 4.07104L51.5508 4.07104Z" fill="#E1DCF3"/>
<path d="M40.1677 42.3804L40.1677 3.20858L42.791 3.20858L42.791 0.0209961L34.3569 0.0209957L34.3569 3.20858L36.9802 3.20858L36.9802 42.3804L40.1677 42.3804Z" fill="#E1DCF3"/>
<path d="M24.3711 14.266L24.3711 21.1414L21.1835 21.1414L21.1835 14.266L24.3711 14.266Z" fill="#643DA8"/>
<path d="M30.7461 14.266L30.7461 21.1414L27.5585 21.1414L27.5585 14.266L30.7461 14.266Z" fill="#643DA8"/>
<path d="M51.5508 14.266L51.5508 42.3798L48.3632 42.3798L48.3632 14.266L51.5508 14.266Z" fill="#CECEF4"/>
<path d="M40.168 14.2668L40.168 42.3807L36.9804 42.3807L36.9804 14.2668L40.168 14.2668Z" fill="#CECEF4"/>
</svg>
