<svg width="60" height="51" viewBox="0 0 60 51" fill="none" xmlns="http://www.w3.org/2000/svg">
<path d="M2.34777 25.6597C3.64441 25.6597 4.69554 24.6225 4.69554 23.343C4.69554 22.0636 3.64441 21.0264 2.34777 21.0264C1.05113 21.0264 0 22.0636 0 23.343C0 24.6225 1.05113 25.6597 2.34777 25.6597Z" fill="white"/>
<path d="M58.6938 15.4664C59.4718 15.4664 60.1025 14.8441 60.1025 14.0764C60.1025 13.3087 59.4718 12.6864 58.6938 12.6864C57.9158 12.6864 57.2852 13.3087 57.2852 14.0764C57.2852 14.8441 57.9158 15.4664 58.6938 15.4664Z" fill="white"/>
<path d="M17.7488 29.7454L9.19727 41.1961L17.7694 41.311L20.4196 49.3553L28.8979 38.0019" fill="#7E57C2"/>
<path d="M17.7695 41.2422L22.4247 35.0077L17.7695 41.2422Z" fill="#EE3E54"/>
<path d="M19.6289 38.9685L21.2545 43.4989L19.6289 38.9685Z" fill="#EE3E54"/>
<path d="M21.0977 36.7787L23.8427 44.4301L21.0977 36.7787Z" fill="#EE3E54"/>
<path d="M23.2891 35.6028L25.604 42.0579L23.2891 35.6028Z" fill="#EE3E54"/>
<path d="M45.1168 29.7455L53.6674 41.1962L45.0952 41.3111L42.4451 49.3554L33.9668 38.002" fill="#7E57C2"/>
<path d="M45.0933 41.2426L40.5527 35.1619L45.0933 41.2426Z" fill="#EE3E54"/>
<path d="M43.2321 38.9685L41.6074 43.4989L43.2321 38.9685Z" fill="#EE3E54"/>
<path d="M41.7645 36.7787L39.0195 44.4301L41.7645 36.7787Z" fill="#EE3E54"/>
<path d="M39.5776 35.6028L37.2617 42.0579L39.5776 35.6028Z" fill="#EE3E54"/>
<path d="M31.462 6.88928C22.7715 6.8865 15.7235 13.8355 15.7207 22.4108C15.7179 30.9861 22.7603 37.9406 31.4508 37.9434C31.4545 37.9434 31.4583 37.9434 31.462 37.9434C40.1525 37.9462 47.2005 30.9972 47.2034 22.4219C47.2062 13.8466 40.1638 6.89206 31.4733 6.88928C31.4705 6.88928 31.4667 6.88928 31.462 6.88928Z" fill="#FFE58A"/>
<path d="M44.1195 27.0941C44.0914 27.0941 44.0632 27.0895 44.036 27.0793C43.9064 27.0339 43.8387 26.894 43.8857 26.7652C44.3938 25.3668 44.6511 23.8981 44.6511 22.4015C44.6511 15.2681 38.7694 9.46354 31.5392 9.46354C31.4021 9.46354 31.2904 9.35327 31.2904 9.21798C31.2904 9.08268 31.4021 8.97241 31.5392 8.97241C39.0437 8.97241 45.1488 14.9957 45.1488 22.4015C45.1488 23.9555 44.8812 25.479 44.3552 26.931C44.3177 27.033 44.221 27.0941 44.1195 27.0941ZM23.3624 33.0748C23.3089 33.0748 23.2563 33.0581 23.2103 33.0238C19.8549 30.4579 17.9297 26.5863 17.9297 22.4025C17.9297 17.9619 20.1507 13.8142 23.8724 11.3067C23.986 11.2297 24.1409 11.2585 24.218 11.3706C24.2959 11.4827 24.2668 11.6356 24.1532 11.7125C20.5686 14.1283 18.4293 18.1241 18.4293 22.4015C18.4293 26.4334 20.284 30.1623 23.5174 32.6346C23.6263 32.7171 23.646 32.8728 23.5615 32.9793C23.5099 33.0423 23.4366 33.0748 23.3624 33.0748ZM25.605 34.4629C25.5684 34.4629 25.5299 34.4555 25.4942 34.4369C25.1439 34.2655 24.8002 34.0783 24.4706 33.88C24.3532 33.8096 24.3166 33.6576 24.387 33.5427C24.4593 33.425 24.6152 33.3908 24.7298 33.4612C25.0472 33.6521 25.3796 33.8328 25.7168 33.9977C25.8407 34.0579 25.8905 34.2053 25.8285 34.3267C25.7834 34.4129 25.6961 34.4629 25.605 34.4629ZM31.5383 35.8306C30.1616 35.8306 28.8027 35.6286 27.4964 35.2283C27.3649 35.1885 27.2926 35.0504 27.333 34.9207C27.3734 34.7919 27.5133 34.7187 27.6438 34.7585C28.9003 35.144 30.2104 35.3386 31.5374 35.3386C31.6745 35.3386 31.7862 35.4489 31.7862 35.5841C31.7862 35.7194 31.6745 35.8306 31.5383 35.8306Z" fill="#FFC807"/>
<path d="M31.5364 17.1234L33.2747 20.5975L37.1607 21.1544L34.3491 23.8593L35.013 27.679L31.5364 25.8748L28.0608 27.679L28.7247 23.8593L25.9121 21.1544L29.7981 20.5975L31.5364 17.1234Z" fill="#FFC807"/>
<path d="M14.1499 0.55995L14.3932 1.51995C14.5148 2.35995 15.2444 2.95995 15.9741 3.07995L16.947 3.31995C17.4335 3.43995 17.4335 4.15995 16.947 4.15995L15.9741 4.39995C15.1228 4.51995 14.5148 5.23995 14.3932 5.95995L14.1499 6.91995C14.0283 7.39995 13.2986 7.39995 13.2986 6.91995L13.0554 5.95995C12.9338 5.11995 12.2041 4.51995 11.4745 4.39995L10.5016 4.15995C10.0151 4.03995 10.0151 3.31995 10.5016 3.31995L11.4745 3.07995C12.3257 2.95995 12.9338 2.23995 13.0554 1.51995L13.2986 0.55995C13.2986 0.0799514 14.0283 0.0799514 14.1499 0.55995Z" fill="#D228CB"/>
<path d="M51.8802 13.6699L52.0018 14.3899C52.1234 14.8699 52.4883 15.3499 53.0963 15.4699L53.826 15.5899C54.1909 15.7099 54.1909 16.0699 53.826 16.1899L53.0963 16.3099C52.6099 16.4299 52.1234 16.7899 52.0018 17.3899L51.8802 18.1099C51.7586 18.4699 51.3938 18.4699 51.2722 18.1099L51.1505 17.3899C51.0289 16.9099 50.6641 16.4299 50.056 16.3099L49.3264 16.1899C48.9615 16.0699 48.9615 15.7099 49.3264 15.5899L50.056 15.4699C50.5425 15.3499 51.0289 14.9899 51.1505 14.3899L51.2722 13.6699C51.3938 13.3099 51.8802 13.3099 51.8802 13.6699Z" fill="#7A0076"/>
<path d="M10.5345 46.0699L10.6561 46.7899C10.7777 47.2699 11.1426 47.7499 11.7506 47.8699L12.4803 47.9899C12.8452 48.1099 12.8452 48.4699 12.4803 48.5899L11.7506 48.7099C11.2642 48.8299 10.7777 49.1899 10.6561 49.7899L10.5345 50.5099C10.4129 50.8699 10.0481 50.8699 9.92646 50.5099L9.80484 49.7899C9.68323 49.3099 9.3184 48.8299 8.71033 48.7099L7.98066 48.5899C7.61582 48.4699 7.61582 48.1099 7.98066 47.9899L8.71033 47.8699C9.19678 47.7499 9.68323 47.3899 9.80484 46.7899L9.92646 46.0699C10.0481 45.7099 10.5345 45.7099 10.5345 46.0699Z" fill="#D228CB"/>
</svg>
