<svg width="63" height="63" viewBox="0 0 63 63" fill="none" xmlns="http://www.w3.org/2000/svg">
<path d="M33.6235 31.7293C31.1891 29.8619 28.2281 29.0045 25.2327 28.5478C22.249 28.092 19.167 27.966 16.2384 28.6984C14.2165 29.2044 12.3118 30.1789 10.7496 31.5639C9.96698 32.2579 9.27201 33.0523 8.6932 33.9244C7.3958 35.8784 6.60337 38.8542 8.21972 40.9233C9.0082 41.9333 10.1993 42.5692 11.4091 42.9285C12.6937 43.3095 13.9754 43.714 15.2521 43.9286C19.7487 44.6827 24.4905 44.2564 28.8207 42.8635C33.2691 41.4332 36.8158 39.6397 40.3605 36.5133C37.5777 35.7613 35.8068 33.4037 33.6235 31.7293Z" fill="#FBC997"/>
<path d="M9.28383 34.0712C9.99848 33.3064 10.8145 32.638 11.7015 32.0828C13.4704 30.9754 15.51 30.3286 17.588 30.1642C20.5973 29.926 23.6153 30.56 26.4828 31.502C29.3621 32.448 32.14 33.7828 34.2328 36.0272C35.1542 37.0145 35.9505 38.1465 36.8306 39.186C38.0266 38.4123 39.1941 37.5412 40.3586 36.5145C37.5767 35.7624 35.8058 33.4048 33.6225 31.7304C31.1881 29.863 28.2271 29.0056 25.2317 28.5489C22.248 28.0931 19.166 27.9671 16.2375 28.6995C14.2155 29.2055 12.3108 30.18 10.7486 31.565C9.966 32.259 9.27202 33.0534 8.69222 33.9255C8.03761 34.9119 7.51195 36.1581 7.35938 37.4181C7.70588 36.1552 8.44809 34.9641 9.28383 34.0712Z" fill="#FBC188"/>
<path d="M60.0469 53.1562V49.2188L58.0781 47.25L56.1094 49.2188L60.0469 53.1562Z" fill="#5E24C2"/>
<path d="M38.4479 17.9895C34.4179 15.4105 27.796 15.0541 23.2039 15.8003C16.4836 16.891 11.037 19.7496 4.57756 21.8168C3.50361 22.1603 2.8805 23.2786 3.15416 24.3722C3.45636 25.5811 4.72325 26.277 5.90549 25.8823C9.90599 24.5494 12.7833 23.2156 16.7838 21.8818C20.489 20.6464 24.0977 19.4671 27.8059 18.9464C30.5523 18.5605 33.3538 18.5339 36.2902 19.1206L42.3559 20.3333L38.4479 17.9895Z" fill="#43403C"/>
<path d="M39.375 24.6094L39.2057 24.4401C37.423 22.6574 35.0054 21.6562 32.4844 21.6562L31.5 22.6406L30.5156 23.625C30.5156 26.146 31.5167 28.5636 33.2994 30.3463L33.4688 30.5156L54.1406 51.1875L56.1094 49.2188L58.0781 47.25L60.0469 45.2812L39.375 24.6094Z" fill="#7E57C2"/>
<path d="M39.375 32.4844C36.0901 29.1995 35.0024 24.6104 34.6382 21.9142C33.9373 21.7498 33.2167 21.6562 32.4844 21.6562L31.5 22.6406L30.5156 23.625C30.5156 26.146 31.5167 28.5636 33.2994 30.3463L33.4688 30.5156L54.1406 51.1875L56.1094 49.2188C52.1246 45.234 43.1491 36.2585 39.375 32.4844Z" fill="#5E24C2"/>
<path d="M42.2793 48.317L39 46C37.0037 44.3738 35.7375 42.9276 35.514 41.8202C35.9284 41.6548 36.3389 41.4776 36.7435 41.2827C36.9591 41.1784 37.1746 41.0661 37.3902 40.946C38.2742 40.4529 38.5045 39.2795 37.9031 38.4654L37.8046 38.3315C37.1422 38.8208 36.5161 39.2067 35.891 39.5069C34.4361 40.2078 32.8208 40.694 31.2566 41.1656C30.6984 41.3339 30.1423 41.5012 29.595 41.6774C24.996 43.157 20.1706 43.5369 15.6336 42.776C12.648 42.275 9.39559 41.4432 7.9141 39.0738C6.93564 39.686 6.8431 41.0701 7.72117 41.8192C8.49292 42.4767 9.38574 42.9867 10.3416 43.3912C10.2234 44.1994 9.87695 45.5283 8.8532 46.0402L6.5 48C8.13898 47.18 11.9934 45.2507 12.2276 44.0399C12.648 44.159 13.0703 44.2663 13.4965 44.3608C13.3902 45.2625 13.022 47.0314 11.7364 48.317L10.3416 50.3616C11.9668 48.7364 15.2694 45.9486 15.4328 44.732C16.1012 44.8412 16.7754 44.92 17.4537 44.983C17.5521 46.2302 17.5 47.5 16.5 49.5L15 52.3234C17.0219 50.3015 19.5337 46.742 19.4362 45.0903C19.7158 45.0981 19.9934 45.1247 20.2739 45.1247C20.522 45.1247 20.773 45.1011 21.022 45.0952C21.3932 46.2469 21.5 47.8554 20.0721 51.0083L19.4362 53C21.7318 50.4387 23.4968 46.6987 23.043 44.9928C23.4485 44.9574 23.8541 44.8993 24.2596 44.8481C24.3788 46.8523 26.4507 51.7842 27.5 53.5L26.7482 50.3084C26.2735 48.1514 26.3505 46.9763 26.2136 44.54C26.5188 44.4819 26.8239 44.4248 27.1281 44.3589C27.2049 46.1819 30.7625 50.669 33.5 53L31.5 50C29.9309 47.5469 29.0949 45.1769 29.089 43.8608C29.4581 43.7564 29.8312 43.6688 30.1974 43.5507C30.221 43.5428 30.2456 43.5359 30.2693 43.529C30.5695 45.4181 34.3805 49.4988 38 51L35.5 48.5C34.0184 46.4851 32.3433 44.3313 32.1711 42.9453C32.6603 42.7977 33.1515 42.6431 33.6447 42.4836C34.0945 44.3244 38.9954 47.2323 42.2793 48.317Z" fill="#43403C"/>
<path d="M27.2734 17.0228L30.8034 23.3366L32.1953 21.9447L27.2734 17.0228Z" fill="#737373"/>
<path d="M12.125 5.375L12.375 6.375C12.5 7.25 13.25 7.875 14 8L15 8.25C15.5 8.375 15.5 9.125 15 9.125L14 9.375C13.125 9.5 12.5 10.25 12.375 11L12.125 12C12 12.5 11.25 12.5 11.25 12L11 11C10.875 10.125 10.125 9.5 9.375 9.375L8.375 9.125C7.875 9 7.875 8.25 8.375 8.25L9.375 8C10.25 7.875 10.875 7.125 11 6.375L11.25 5.375C11.25 4.875 12 4.875 12.125 5.375Z" fill="#8F0057"/>
<path d="M52.9062 21.2813L53.0312 22.0313C53.1562 22.5312 53.5312 23.0313 54.1562 23.1563L54.9062 23.2812C55.2812 23.4062 55.2812 23.7812 54.9062 23.9063L54.1562 24.0312C53.6562 24.1562 53.1562 24.5312 53.0312 25.1562L52.9062 25.9062C52.7813 26.2812 52.4063 26.2812 52.2812 25.9062L52.1562 25.1562C52.0313 24.6563 51.6563 24.1562 51.0313 24.0312L50.2812 23.9063C49.9063 23.7813 49.9063 23.4063 50.2812 23.2812L51.0313 23.1563C51.5312 23.0313 52.0313 22.6563 52.1562 22.0313L52.2812 21.2813C52.4062 20.9062 52.9062 20.9062 52.9062 21.2813Z" fill="#FF0FA2"/>
<path d="M14.9063 56.2812L15.0312 57.0312C15.1562 57.5312 15.5312 58.0313 16.1562 58.1562L16.9062 58.2812C17.2812 58.4062 17.2812 58.7812 16.9062 58.9062L16.1562 59.0312C15.6563 59.1562 15.1562 59.5312 15.0312 60.1562L14.9063 60.9062C14.7813 61.2812 14.4063 61.2812 14.2812 60.9062L14.1563 60.1562C14.0313 59.6562 13.6563 59.1562 13.0312 59.0312L12.2813 58.9062C11.9062 58.7812 11.9062 58.4063 12.2813 58.2812L13.0312 58.1562C13.5312 58.0313 14.0313 57.6562 14.1563 57.0312L14.2812 56.2812C14.4062 55.9063 14.9063 55.9063 14.9063 56.2812Z" fill="#8F0057"/>
</svg>
