<svg width="60" height="60" viewBox="0 0 60 60" fill="none" xmlns="http://www.w3.org/2000/svg">
<path d="M3.75 13.75H56.25V50H3.75V13.75Z" fill="#7E57C2"/>
<path d="M30 40C26.5482 40 23.75 42.7982 23.75 46.25C23.75 49.7018 26.5482 52.5 30 52.5C33.4518 52.5 36.25 49.7018 36.25 46.25C36.25 42.7982 33.4518 40 30 40Z" fill="#7E57C2"/>
<path d="M30 42.5C27.9289 42.5 26.25 44.1789 26.25 46.25C26.25 48.3211 27.9289 50 30 50C32.0711 50 33.75 48.3211 33.75 46.25C33.75 44.1789 32.0711 42.5 30 42.5Z" fill="#5E35B1"/>
<path d="M50 10L31.25 13.75H28.75L10 10L7.5 16.25V46.25H52.5V16.25L50 10Z" fill="#D7CCC8"/>
<path d="M10 42.5H28.75V46.25H31.25V42.5H50L52.5 46.25H7.5L10 42.5Z" fill="#BCAAA4"/>
<path d="M50 10C50 10 31.25 10 31.25 13.75C31.25 17.5 31.25 46.25 31.25 46.25C31.25 42.5 50 42.5 50 42.5V10ZM10 10C10 10 28.75 10 28.75 13.75C28.75 17.5 28.75 46.25 28.75 46.25C28.75 42.5 10 42.5 10 42.5V10Z" fill="#EFEBE9"/>
<path d="M21.75 7.875L22 8.875C22.125 9.75 22.875 10.375 23.625 10.5L24.625 10.75C25.125 10.875 25.125 11.625 24.625 11.625L23.625 11.875C22.75 12 22.125 12.75 22 13.5L21.75 14.5C21.625 15 20.875 15 20.875 14.5L20.625 13.5C20.5 12.625 19.75 12 19 11.875L18 11.625C17.5 11.5 17.5 10.75 18 10.75L19 10.5C19.875 10.375 20.5 9.625 20.625 8.875L20.875 7.875C20.875 7.375 21.625 7.375 21.75 7.875Z" fill="#FF8A65"/>
<path d="M42.75 22.75L42.875 23.5C43 24 43.375 24.5 44 24.625L44.75 24.75C45.125 24.875 45.125 25.25 44.75 25.375L44 25.5C43.5 25.625 43 26 42.875 26.625L42.75 27.375C42.625 27.75 42.25 27.75 42.125 27.375L42 26.625C41.875 26.125 41.5 25.625 40.875 25.5L40.125 25.375C39.75 25.25 39.75 24.875 40.125 24.75L40.875 24.625C41.375 24.5 41.875 24.125 42 23.5L42.125 22.75C42.25 22.375 42.75 22.375 42.75 22.75Z" fill="#FF7043"/>
<path d="M24 31.5L24.125 32.25C24.25 32.75 24.625 33.25 25.25 33.375L26 33.5C26.375 33.625 26.375 34 26 34.125L25.25 34.25C24.75 34.375 24.25 34.75 24.125 35.375L24 36.125C23.875 36.5 23.5 36.5 23.375 36.125L23.25 35.375C23.125 34.875 22.75 34.375 22.125 34.25L21.375 34.125C21 34 21 33.625 21.375 33.5L22.125 33.375C22.625 33.25 23.125 32.875 23.25 32.25L23.375 31.5C23.5 31.125 24 31.125 24 31.5Z" fill="#FF8A65"/>
</svg>
